<svg class="{{ include.class | default: 'footer-icon' }}" viewBox="0 0 24 24" aria-hidden="true" focusable="false">
  <path fill="currentColor" d="M19.14 12.94a7.5 7.5 0 0 0 .05-.94 7.5 7.5 0 0 0-.05-.94l2.03-1.58a.5.5 0 0 0 .12-.64l-1.92-3.32a.5.5 0 0 0-.6-.22l-2.39.96a7.38 7.38 0 0 0-1.63-.94l-.36-2.54A.5.5 0 0 0 13.9 1h-3.8a.5.5 0 0 0-.49.42l-.36 2.54c-.58.23-1.12.54-1.63.94l-2.39-.96a.5.5 0 0 0-.6.22L2.7 7.48a.5.5 0 0 0 .12.64l2.03 1.58c-.03.31-.05.63-.05.94s.02.63.05.94L2.82 14.5a.5.5 0 0 0-.12.64l1.92 3.32c.13.22.39.3.6.22l2.39-.96c.51.4 1.05.71 1.63.94l.36 2.54c.04.24.25.42.49.42h3.8c.24 0 .45-.18.49-.42l.36-2.54c.58-.23 1.12-.54 1.63-.94l2.39.96c.22.08.48 0 .6-.22l1.92-3.32a.5.5 0 0 0-.12-.64l-2.03-1.56ZM12 15.5A3.5 3.5 0 1 1 12 8a3.5 3.5 0 0 1 0 7.5Z"/>
</svg>

