<svg class="{{ include.class | default: 'footer-icon' }}" viewBox="0 0 24 24" aria-hidden="true" focusable="false">
  <path fill="currentColor" d="M12 .5a12 12 0 0 0-3.79 23.39c.6.11.82-.26.82-.58v-2.03c-3.34.73-4.04-1.61-4.04-1.61-.55-1.4-1.34-1.77-1.34-1.77-1.1-.75.08-.74.08-.74 1.21.09 1.85 1.25 1.85 1.25 1.08 1.85 2.83 1.32 3.52 1.01.11-.78.42-1.32.76-1.62-2.67-.31-5.47-1.34-5.47-5.95 0-1.31.47-2.38 1.24-3.22-.13-.31-.54-1.56.12-3.25 0 0 1.01-.32 3.3 1.23a11.4 11.4 0 0 1 6 0c2.29-1.55 3.3-1.23 3.3-1.23.66 1.69.25 2.94.12 3.25.77.84 1.24 1.91 1.24 3.22 0 4.62-2.8 5.64-5.48 5.94.43.37.82 1.11.82 2.23v3.31c0 .32.22.69.83.58A12 12 0 0 0 12 .5Z"/>
</svg>
